[Header]
FileType HTR
DataType HTRS
FileVersion 1
NumSegments 22
NumFrames 4
DataFrameRate 24
EulerRotationOrder ZYX
CalibrationUnits mm
RotationUnits Degrees
GlobalAxisofGravity Y
BoneLengthAxis Y
ScaleFactor 1.0
[SegmentNames&Hierarchy]
reference	GLOBAL
Hips	reference
Spine	Hips
Spine1	Spine
Neck	Spine1
Head	Neck
LeftShoulder	Spine1
LeftArm	LeftShoulder
LeftForeArm	LeftArm
LeftHand	LeftForeArm
RightShoulder	Spine1
RightArm	RightShoulder
RightForeArm	RightArm
RightHand	RightForeArm
LeftUpLeg	Hips
LeftLeg	LeftUpLeg
LeftFoot	LeftLeg
LeftToeBase	LeftFoot
RightUpLeg	Hips
RightLeg	RightUpLeg
RightFoot	RightLeg
RightToeBase	RightFoot
[BasePosition]
reference	0	0	0	0	0	0	1
Hips	0	0	0	0	0	0	1
Spine	0	0	0	-0	-90	0	1
Spine1	0	0	0	0	0	0	1
Neck	0	0	0	82.64767223	-82.64767223	-90	1
Head	0	0	0	-0	-90	0	1
LeftShoulder	0	0	0	0	0	0	1
LeftArm	0	0	0	0	0	0	1
LeftForeArm	0	0	0	0	0	0	1
LeftHand	0	0	0	0	0	0	1
RightShoulder	0	0	0	0	-0	180	1
RightArm	0	0	0	0	-0	180	1
RightForeArm	0	0	0	0	-0	180	1
RightHand	0	0	0	0	-0	180	1
LeftUpLeg	0	0	0	-0	90	0	1
LeftLeg	0	0	0	-0	90	0	1
LeftFoot	0	0	0	-23.42853957	23.42853957	-90	1
LeftToeBase	0	0	0	0	-0	-90	1
RightUpLeg	0	0	0	-0	90	0	1
RightLeg	0	0	0	-0	90	0	1
RightFoot	0	0	0	-23.42853957	23.42853957	-90	1
RightToeBase	0	0	0	0	-0	-90	1
[reference]
12	0	0	0	0	-0	0	1.0
13	0	0	0	0	-0	0	1.0
14	0	0	0	0	-0	0	1.0
15	0	0	0	0	-0	0	1.0
[Hips]
12	4.886119843	0.005080000497	7.987010002	0.625831008	-0.1517182887	-93.88225555	1.0
13	4.886119843	0.005080000497	7.987010002	0.7000203729	-0.4262741804	-93.43340302	1.0
14	4.886119843	0.005080000497	7.987010002	0.8932198286	-0.6550107002	-93.39955139	1.0
15	4.886119843	0.005080000497	7.987010002	1.094435096	-0.841930151	-93.56443787	1.0
[Spine]
12	0	0	0.7457100153	230.4950409	87.91693878	232.8934631	1.0
13	0	0	0.7457100153	237.7814941	86.95623016	239.880249	1.0
14	0	0	0.7457100153	243.1448975	86.32393646	245.01297	1.0
15	0	0	0.7457100153	250.3542175	85.91775513	251.9705505	1.0
[Spine1]
12	0	0	2.140589952	6.272688866	-2.054222107	-0.6563456059	1.0
13	0	0	2.140589952	5.343680859	-1.819137812	-0.9533711076	1.0
14	0	0	2.140589952	4.586217403	-1.464932561	-1.160785556	1.0
15	0	0	2.140589952	4.215171337	-0.7231952548	-1.314941883	1.0
[Neck]
12	0	0	2.32246995	-91.89241028	95.0956955	-68.70609283	1.0
13	0	0	2.32246995	-96.02135468	95.39797974	-72.70887756	1.0
14	0	0	2.32246995	-97.82717896	95.76116943	-73.61453247	1.0
15	0	0	2.32246995	-104.4988861	96.0807724	-78.53556824	1.0
[Head]
12	0	-0.1818799973	1.409579992	-92.94454956	87.52844238	-90.89492798	1.0
13	0	-0.1818799973	1.409579992	-80.53150177	87.82582092	-79.02746582	1.0
14	0	-0.1818799973	1.409579992	-62.19482422	87.95797729	-61.71380997	1.0
15	0	-0.1818799973	1.409579992	-55.63831329	88.32826233	-56.60703278	1.0
[LeftShoulder]
12	0.3668199778	0.02662999928	1.946700096	-19.44453049	-0.3388379514	-15.76345253	1.0
13	0.3668199778	0.02662999928	1.946700096	-19.89678955	-0.4902297854	-15.13343811	1.0
14	0.3668199778	0.02662999928	1.946700096	-20.35870743	-0.06136363	-14.96822357	1.0
15	0.3668199778	0.02662999928	1.946700096	-21.04655457	0.5707145333	-15.14108086	1.0
[LeftArm]
12	1.140689969	0	0	55.89372253	65.42346954	4.871939659	1.0
13	1.140689969	0	0	52.28448105	66.43979645	-0.06583556533	1.0
14	1.140689969	0	0	48.94068146	67.15705109	-5.69114399	1.0
15	1.140689969	0	0	46.34685135	67.79598236	-10.79243469	1.0
[LeftForeArm]
12	2.749800205	0	0	-8.281504631	-0.9505237341	-84.54789734	1.0
13	2.749800205	0	0	-7.961526871	-1.562310457	-88.63890076	1.0
14	2.749800205	0	0	-6.214680672	-3.39309144	-92.53300476	1.0
15	2.749800205	0	0	-3.653364182	-5.53664875	-95.5982666	1.0
[LeftHand]
12	2.295179844	0	0	-8.460945129	-4.083716869	-18.96546936	1.0
13	2.295179844	0	0	-8.740497589	-4.40664959	-19.26006889	1.0
14	2.295179844	0	0	-9.069865227	-4.18972683	-19.19370461	1.0
15	2.295179844	0	0	-9.049713135	-4.172164917	-18.98467636	1.0
[RightShoulder]
12	-0.3601199985	0.02662999928	1.946700096	-0.1048073024	5.876086235	-178.269043	1.0
13	-0.3601199985	0.02662999928	1.946700096	0.7298822403	5.666062355	-177.8726349	1.0
14	-0.3601199985	0.02662999928	1.946700096	1.341297626	5.886362553	-177.5220032	1.0
15	-0.3601199985	0.02662999928	1.946700096	1.978615522	5.673199654	-177.0479126	1.0
[RightArm]
12	-1.140689969	0	0	47.00227737	-50.8697052	-206.1470642	1.0
13	-1.140689969	0	0	46.22426224	-48.38817215	-210.2617798	1.0
14	-1.140689969	0	0	45.70773697	-46.68065262	-214.582489	1.0
15	-1.140689969	0	0	45.02703857	-45.82369232	-217.7906952	1.0
[RightForeArm]
12	-2.749800205	0	0	4.846922398	-18.17666626	-106.4453354	1.0
13	-2.749800205	0	0	3.342932463	-20.86356735	-105.9638214	1.0
14	-2.749800205	0	0	2.317360401	-23.68206024	-106.2370758	1.0
15	-2.749800205	0	0	2.556388378	-25.60099792	-107.2904892	1.0
[RightHand]
12	-2.295179844	0	0	20.30151558	9.904939651	-159.2149963	1.0
13	-2.295179844	0	0	21.00013733	10.33551025	-159.7621918	1.0
14	-2.295179844	0	0	22.10246849	10.7859478	-159.9944	1.0
15	-2.295179844	0	0	23.4770565	10.97237396	-160.0586395	1.0
[LeftUpLeg]
12	0.9094099998	0	0	-58.54803085	-93.47587585	39.78053665	1.0
13	0.9094099998	0	0	-58.96022797	-92.54079437	43.25120544	1.0
14	0.9094099998	0	0	-39.741745	-90.85961151	27.80247498	1.0
15	0.9094099998	0	0	15.20532894	-89.18232727	-23.02252769	1.0
[LeftLeg]
12	0	0	-4.498080254	77.91581726	-58.11514664	-16.01337814	1.0
13	0	0	-4.498080254	79.41081238	-61.10056305	-20.27117348	1.0
14	0	0	-4.498080254	83.1920929	-65.67218018	-29.11288452	1.0
15	0	0	-4.498080254	86.98625183	-72.97979736	-40.46331787	1.0
[LeftFoot]
12	0	0	-3.729400158	-50.24047089	15.93955612	116.1266022	1.0
13	0	0	-3.729400158	-49.36313248	9.213763237	114.3708038	1.0
14	0	0	-3.729400158	-50.24390793	6.187184811	108.1711044	1.0
15	0	0	-3.729400158	-49.50909424	1.182240248	104.8802643	1.0
[LeftToeBase]
12	0	-1.364109993	-0.5911099911	-9.999999975e-007	0	0	1.0
13	0	-1.364109993	-0.5911099911	-9.999999975e-007	0	0	1.0
14	0	-1.364109993	-0.5911099911	-9.999999975e-007	0	0	1.0
15	0	-1.364109993	-0.5911099911	-9.999999975e-007	0	0	1.0
[RightUpLeg]
12	-0.9094099998	0	0	-87.17952728	-107.0312958	77.10834503	1.0
13	-0.9094099998	0	0	-89.13655853	-107.5225449	79.31976318	1.0
14	-0.9094099998	0	0	-90.4437027	-107.7226639	80.41519928	1.0
15	-0.9094099998	0	0	-92.06791687	-107.355896	81.20270538	1.0
[RightLeg]
12	0	0	-4.498080254	13.76832199	-87.38441467	10.16346645	1.0
13	0	0	-4.498080254	31.16495705	-87.2833252	-9.810237885	1.0
14	0	0	-4.498080254	49.32086945	-86.15960693	-30.46967697	1.0
15	0	0	-4.498080254	55.92224503	-85.1577301	-38.50002289	1.0
[RightFoot]
12	0	0	-3.729400158	-54.80848312	-22.43433571	94.27249146	1.0
13	0	0	-3.729400158	-53.16686249	-22.32711792	95.57084656	1.0
14	0	0	-3.729400158	-51.60387802	-22.08966827	97.72402954	1.0
15	0	0	-3.729400158	-50.19573593	-22.19867706	99.1661377	1.0
[RightToeBase]
12	0	-1.364109993	-0.5911099911	-9.999999975e-007	-9.999999975e-007	-9.999999975e-007	1.0
13	0	-1.364109993	-0.5911099911	-9.999999975e-007	-9.999999975e-007	-9.999999975e-007	1.0
14	0	-1.364109993	-0.5911099911	-9.999999975e-007	-9.999999975e-007	-9.999999975e-007	1.0
15	0	-1.364109993	-0.5911099911	-9.999999975e-007	-9.999999975e-007	-9.999999975e-007	1.0
[EndOfFile]
